<svg xmlns="http://www.w3.org/2000/svg" width="22.373" height="25.569" viewBox="0 0 22.373 25.569">
  <path id="Icon_awesome-building" data-name="Icon awesome-building" d="M21.774,23.971h-1V1.2a1.2,1.2,0,0,0-1.2-1.2H2.8A1.2,1.2,0,0,0,1.6,1.2V23.971H.6a.6.6,0,0,0-.6.6v1H22.373v-1A.6.6,0,0,0,21.774,23.971ZM6.392,3.8a.6.6,0,0,1,.6-.6h2a.6.6,0,0,1,.6.6v2a.6.6,0,0,1-.6.6h-2a.6.6,0,0,1-.6-.6Zm0,4.794a.6.6,0,0,1,.6-.6h2a.6.6,0,0,1,.6.6v2a.6.6,0,0,1-.6.6h-2a.6.6,0,0,1-.6-.6Zm2.6,7.391h-2a.6.6,0,0,1-.6-.6v-2a.6.6,0,0,1,.6-.6h2a.6.6,0,0,1,.6.6v2A.6.6,0,0,1,8.989,15.981Zm3.8,7.99h-3.2V19.776a.6.6,0,0,1,.6-.6h2a.6.6,0,0,1,.6.6Zm3.2-8.59a.6.6,0,0,1-.6.6h-2a.6.6,0,0,1-.6-.6v-2a.6.6,0,0,1,.6-.6h2a.6.6,0,0,1,.6.6Zm0-4.794a.6.6,0,0,1-.6.6h-2a.6.6,0,0,1-.6-.6v-2a.6.6,0,0,1,.6-.6h2a.6.6,0,0,1,.6.6Zm0-4.794a.6.6,0,0,1-.6.6h-2a.6.6,0,0,1-.6-.6v-2a.6.6,0,0,1,.6-.6h2a.6.6,0,0,1,.6.6Z" fill="#fff"/>
</svg>
