<svg xmlns="http://www.w3.org/2000/svg" width="10.894" height="19.263" viewBox="0 0 10.894 19.263">
  <path id="Icon_material-attach-money" data-name="Icon material-attach-money" d="M15.345,12.954c-2.429-.631-3.211-1.284-3.211-2.3,0-1.166,1.081-1.98,2.889-1.98,1.9,0,2.611.91,2.675,2.247h2.365a4.266,4.266,0,0,0-3.435-4.077V4.5H13.418V6.812c-2.076.449-3.746,1.8-3.746,3.863,0,2.472,2.044,3.7,5.03,4.42,2.675.642,3.211,1.584,3.211,2.579,0,.738-.524,1.916-2.889,1.916-2.2,0-3.071-.985-3.189-2.247H9.48c.128,2.344,1.884,3.66,3.938,4.1v2.322h3.211v-2.3c2.087-.4,3.746-1.605,3.746-3.8C20.374,14.624,17.774,13.586,15.345,12.954Z" transform="translate(-9.48 -4.5)" fill="#fff"/>
</svg>
