<svg xmlns="http://www.w3.org/2000/svg" width="43.316" height="37.128" viewBox="0 0 43.316 37.128">
  <g id="Icon_ionic-md-images" data-name="Icon ionic-md-images" transform="translate(0 0)">
    <path id="Path_24" data-name="Path 24" d="M43.4,11.867l-7.977-.387-.464-5.2a2,2,0,0,0-2.214-1.769L4.135,6.858a1.973,1.973,0,0,0-1.876,2.1l2.05,22.8a2,2,0,0,0,2.214,1.769l1.45-.116-.232,4.428A2.2,2.2,0,0,0,9.907,40.11l31.917,1.518a2.218,2.218,0,0,0,2.4-2.05L45.566,14.12A2.186,2.186,0,0,0,43.4,11.867Zm-34.315.512L8.4,25.413,6.706,27.8,5.15,10.591v-.1a1.047,1.047,0,0,1,.928-.909L31.314,7.516a.933.933,0,0,1,1.015.764c0,.019.029.019.029.039s.029.019.029.039l.261,2.978L11.473,10.32A2.23,2.23,0,0,0,9.085,12.379ZM41.379,35.285l-8.2-9.621-3.616,3.316-6.691-7.812L11.009,33.806l1.006-19.251v-.039a1.106,1.106,0,0,1,1.151-.87L41.321,15a1.027,1.027,0,0,1,1.006.986c0,.019.029.029.029.048Z" transform="translate(-2.252 -4.502)" fill="#012935"/>
    <path id="Path_25" data-name="Path 25" d="M27.844,19.688a3.094,3.094,0,1,0-3.094-3.094A3.1,3.1,0,0,0,27.844,19.688Z" transform="translate(6.187 -1.127)" fill="#012935"/>
  </g>
</svg>
