<svg xmlns="http://www.w3.org/2000/svg" width="29.312" height="17.587" viewBox="0 0 29.312 17.587">
  <path id="Icon_awesome-money-bill-alt" data-name="Icon awesome-money-bill-alt" d="M16.122,14.759h-.733v-4.03a.366.366,0,0,0-.366-.366H14.4a1.1,1.1,0,0,0-.61.185l-.7.468a.366.366,0,0,0-.1.508l.407.61a.366.366,0,0,0,.508.1l.022-.014v2.539h-.733a.366.366,0,0,0-.366.366v.733a.366.366,0,0,0,.366.366h2.931a.366.366,0,0,0,.366-.366v-.733A.366.366,0,0,0,16.122,14.759ZM27.847,4.5H1.466A1.466,1.466,0,0,0,0,5.966V20.622a1.466,1.466,0,0,0,1.466,1.466H27.847a1.466,1.466,0,0,0,1.466-1.466V5.966A1.466,1.466,0,0,0,27.847,4.5ZM2.2,19.889V16.958A2.931,2.931,0,0,1,5.13,19.889ZM2.2,9.63V6.7H5.13A2.931,2.931,0,0,1,2.2,9.63Zm12.458,8.794c-2.428,0-4.4-2.3-4.4-5.13s1.969-5.13,4.4-5.13,4.4,2.3,4.4,5.13S17.084,18.423,14.656,18.423Zm12.458,1.466H24.183a2.931,2.931,0,0,1,2.931-2.931Zm0-10.259A2.931,2.931,0,0,1,24.183,6.7h2.931Z" transform="translate(0 -4.5)" fill="#fff"/>
</svg>
