<svg xmlns="http://www.w3.org/2000/svg" width="18.483" height="18.482" viewBox="0 0 18.483 18.482">
  <path id="Icon_ionic-ios-paper-plane" data-name="Icon ionic-ios-paper-plane" d="M21.33,3.42,3.567,13.03a.371.371,0,0,0,.027.662l3.03,1.142a.717.717,0,0,1,.4.373l2.355,4.847c.044.213.44.271.444.053L9.463,16.1a1.428,1.428,0,0,1,.324-.809L19,6.268a.222.222,0,0,1,.2-.058.211.211,0,0,1,.116.338l-7.94,9.713a1.775,1.775,0,0,0-.311.8l-.475,3.461c.04.3.275.418.467.147l1.711-2.008a.358.358,0,0,1,.5-.084l4.408,3.212a.355.355,0,0,0,.56-.218L21.85,3.82A.361.361,0,0,0,21.33,3.42Z" transform="translate(-3.376 -3.376)" fill="#012935"/>
</svg>
