<svg xmlns="http://www.w3.org/2000/svg" width="19.891" height="26.521" viewBox="0 0 19.891 26.521">
  <path id="Icon_awesome-file-alt" data-name="Icon awesome-file-alt" d="M11.6,7.045V0H1.243A1.24,1.24,0,0,0,0,1.243V25.278a1.24,1.24,0,0,0,1.243,1.243h17.4a1.24,1.24,0,0,0,1.243-1.243V8.288H12.846A1.247,1.247,0,0,1,11.6,7.045Zm3.315,12.224a.623.623,0,0,1-.622.622h-8.7a.623.623,0,0,1-.622-.622v-.414a.623.623,0,0,1,.622-.622h8.7a.623.623,0,0,1,.622.622Zm0-3.315a.623.623,0,0,1-.622.622h-8.7a.623.623,0,0,1-.622-.622V15.54a.623.623,0,0,1,.622-.622h8.7a.623.623,0,0,1,.622.622Zm0-3.729v.414a.623.623,0,0,1-.622.622h-8.7a.623.623,0,0,1-.622-.622v-.414a.623.623,0,0,1,.622-.622h8.7A.623.623,0,0,1,14.918,12.224Zm4.973-5.91V6.63H13.26V0h.316a1.242,1.242,0,0,1,.881.363l5.071,5.076A1.239,1.239,0,0,1,19.891,6.314Z" fill="#fff"/>
</svg>
