<svg xmlns="http://www.w3.org/2000/svg" width="12.456" height="8.304" viewBox="0 0 12.456 8.304">
  <path id="Icon_awesome-eye" data-name="Icon awesome-eye" d="M12.381,8.336A6.936,6.936,0,0,0,6.228,4.5,6.937,6.937,0,0,0,.075,8.336a.7.7,0,0,0,0,.631A6.936,6.936,0,0,0,6.228,12.8a6.937,6.937,0,0,0,6.153-3.836A.7.7,0,0,0,12.381,8.336Zm-6.153,3.43A3.114,3.114,0,1,1,9.342,8.652,3.114,3.114,0,0,1,6.228,11.766Zm0-5.19a2.061,2.061,0,0,0-.547.082A1.035,1.035,0,0,1,4.234,8.1,2.071,2.071,0,1,0,6.228,6.576Z" transform="translate(0 -4.5)" fill="#fff"/>
</svg>
